<svg width="564" height="528" viewBox="0 0 564 528" fill="none" xmlns="http://www.w3.org/2000/svg">
<g clip-path="url(#clip0_1665_169)">
<path fill-rule="evenodd" clip-rule="evenodd" d="M503.58 0.788574H33.5799V306.264C13.7868 319.136 0.698242 341.449 0.698242 366.819C0.698242 392.189 13.7868 414.502 33.5799 427.374V470.789H503.58V0.788574ZM33.5799 427.374C44.8882 434.728 58.385 439 72.8796 439C112.744 439 145.061 406.683 145.061 366.819C145.061 326.954 112.744 294.637 72.8796 294.637C58.385 294.637 44.8882 298.91 33.5799 306.264V427.374Z" fill="url(#paint0_linear_1665_169)"/>
<path d="M54.2304 365.454H52.2544L51.7344 368.062H53.7104L54.2304 365.454ZM57.2544 364.406L57.1504 365.006C57.1237 365.161 57.0597 365.275 56.9584 365.35C56.8624 365.419 56.713 365.454 56.5104 365.454H55.4064L54.8864 368.062H56.3184C56.473 368.062 56.5824 368.107 56.6464 368.198C56.7157 368.283 56.7344 368.435 56.7024 368.654L56.6304 369.11H54.7344L54.0624 372.494H53.4144C53.345 372.494 53.281 372.478 53.2224 372.446C53.1637 372.414 53.113 372.371 53.0704 372.318C53.033 372.265 53.0064 372.201 52.9904 372.126C52.9744 372.051 52.9744 371.969 52.9904 371.878L53.5584 369.11H51.5824L51.0144 371.95C50.9824 372.147 50.905 372.289 50.7824 372.374C50.6597 372.454 50.521 372.494 50.3664 372.494H49.7264L50.4064 369.11H49.2384C49.089 369.11 48.9797 369.067 48.9104 368.982C48.8464 368.891 48.8304 368.737 48.8624 368.518L48.9264 368.062H50.5584L51.0784 365.454H49.2224L49.3264 364.862C49.353 364.707 49.4144 364.593 49.5104 364.518C49.6117 364.443 49.7637 364.406 49.9664 364.406H51.2304L51.8064 361.542C51.8384 361.382 51.9104 361.257 52.0224 361.166C52.1397 361.075 52.2784 361.03 52.4384 361.03H53.0784L52.4064 364.406H54.3824L55.0544 361.03H55.6864C55.841 361.03 55.961 361.081 56.0464 361.182C56.137 361.283 56.169 361.411 56.1424 361.566L55.5584 364.406H57.2544ZM65.8156 371.406V372.494H59.6716V371.406H62.1276V363.59C62.1276 363.355 62.1356 363.118 62.1516 362.878L60.1116 364.63C60.0423 364.689 59.973 364.726 59.9036 364.742C59.8343 364.753 59.7703 364.753 59.7116 364.742C59.653 364.731 59.597 364.71 59.5436 364.678C59.4956 364.646 59.4583 364.611 59.4316 364.574L58.9836 363.958L62.3996 361.006H63.5596V371.406H65.8156ZM74.5049 368.238L72.7049 363.574C72.6515 363.435 72.5955 363.275 72.5369 363.094C72.4782 362.907 72.4222 362.71 72.3689 362.502C72.2569 362.934 72.1422 363.294 72.0249 363.582L70.2249 368.238H74.5049ZM77.7369 372.494H76.5369C76.3982 372.494 76.2862 372.459 76.2009 372.39C76.1155 372.321 76.0515 372.233 76.0089 372.126L74.9369 369.358H69.7929L68.7209 372.126C68.6889 372.222 68.6275 372.307 68.5369 372.382C68.4462 372.457 68.3342 372.494 68.2009 372.494H67.0009L71.5849 361.03H73.1529L77.7369 372.494ZM85.925 371.406V372.494H79.781V371.406H82.237V363.59C82.237 363.355 82.245 363.118 82.261 362.878L80.221 364.63C80.1517 364.689 80.0823 364.726 80.013 364.742C79.9437 364.753 79.8797 364.753 79.821 364.742C79.7623 364.731 79.7063 364.71 79.653 364.678C79.605 364.646 79.5677 364.611 79.541 364.574L79.093 363.958L82.509 361.006H83.669V371.406H85.925ZM94.6143 368.238L92.8143 363.574C92.7609 363.435 92.7049 363.275 92.6463 363.094C92.5876 362.907 92.5316 362.71 92.4783 362.502C92.3663 362.934 92.2516 363.294 92.1343 363.582L90.3343 368.238H94.6143ZM97.8463 372.494H96.6463C96.5076 372.494 96.3956 372.459 96.3103 372.39C96.2249 372.321 96.1609 372.233 96.1183 372.126L95.0463 369.358H89.9023L88.8303 372.126C88.7983 372.222 88.7369 372.307 88.6463 372.382C88.5556 372.457 88.4436 372.494 88.3103 372.494H87.1103L91.6943 361.03H93.2623L97.8463 372.494ZM106.034 371.406V372.494H99.8904V371.406H102.346V363.59C102.346 363.355 102.354 363.118 102.37 362.878L100.33 364.63C100.261 364.689 100.192 364.726 100.122 364.742C100.053 364.753 99.989 364.753 99.9304 364.742C99.8717 364.731 99.8157 364.71 99.7624 364.678C99.7144 364.646 99.677 364.611 99.6504 364.574L99.2024 363.958L102.618 361.006H103.778V371.406H106.034ZM114.724 368.238L112.924 363.574C112.87 363.435 112.814 363.275 112.756 363.094C112.697 362.907 112.641 362.71 112.588 362.502C112.476 362.934 112.361 363.294 112.244 363.582L110.444 368.238H114.724ZM117.956 372.494H116.756C116.617 372.494 116.505 372.459 116.42 372.39C116.334 372.321 116.27 372.233 116.228 372.126L115.156 369.358H110.012L108.94 372.126C108.908 372.222 108.846 372.307 108.756 372.382C108.665 372.457 108.553 372.494 108.42 372.494H107.22L111.804 361.03H113.372L117.956 372.494Z" fill="#FBFAFF"/>
<circle cx="499.698" cy="356.494" r="50" fill="#FBFAFF"/>
<path d="M472.538 355.954H470.562L470.042 358.562H472.018L472.538 355.954ZM475.562 354.906L475.458 355.506C475.432 355.661 475.368 355.775 475.266 355.85C475.17 355.919 475.021 355.954 474.818 355.954H473.714L473.194 358.562H474.626C474.781 358.562 474.89 358.607 474.954 358.698C475.024 358.783 475.042 358.935 475.01 359.154L474.938 359.61H473.042L472.37 362.994H471.722C471.653 362.994 471.589 362.978 471.53 362.946C471.472 362.914 471.421 362.871 471.378 362.818C471.341 362.765 471.314 362.701 471.298 362.626C471.282 362.551 471.282 362.469 471.298 362.378L471.866 359.61H469.89L469.322 362.45C469.29 362.647 469.213 362.789 469.09 362.874C468.968 362.954 468.829 362.994 468.674 362.994H468.034L468.714 359.61H467.546C467.397 359.61 467.288 359.567 467.218 359.482C467.154 359.391 467.138 359.237 467.17 359.018L467.234 358.562H468.866L469.386 355.954H467.53L467.634 355.362C467.661 355.207 467.722 355.093 467.818 355.018C467.92 354.943 468.072 354.906 468.274 354.906H469.538L470.114 352.042C470.146 351.882 470.218 351.757 470.33 351.666C470.448 351.575 470.586 351.53 470.746 351.53H471.386L470.714 354.906H472.69L473.362 351.53H473.994C474.149 351.53 474.269 351.581 474.354 351.682C474.445 351.783 474.477 351.911 474.45 352.066L473.866 354.906H475.562ZM478.995 352.794V356.802H483.707V358.066H478.995V362.994H477.443V351.53H484.507V352.794H478.995ZM490.514 361.762C490.957 361.762 491.338 361.711 491.658 361.61C491.978 361.509 492.24 361.367 492.442 361.186C492.65 360.999 492.802 360.781 492.898 360.53C492.994 360.274 493.042 359.994 493.042 359.69C493.042 359.098 492.832 358.631 492.41 358.29C491.989 357.943 491.357 357.77 490.514 357.77H488.034V361.762H490.514ZM488.034 352.754V356.666H490.082C490.52 356.666 490.898 356.618 491.218 356.522C491.544 356.426 491.81 356.293 492.018 356.122C492.232 355.951 492.389 355.746 492.49 355.506C492.592 355.261 492.642 354.994 492.642 354.706C492.642 354.029 492.44 353.535 492.034 353.226C491.629 352.911 491 352.754 490.146 352.754H488.034ZM490.146 351.53C490.85 351.53 491.456 351.599 491.962 351.738C492.474 351.877 492.893 352.074 493.218 352.33C493.549 352.586 493.792 352.901 493.946 353.274C494.101 353.642 494.178 354.058 494.178 354.522C494.178 354.805 494.133 355.077 494.042 355.338C493.957 355.594 493.826 355.834 493.65 356.058C493.474 356.282 493.25 356.485 492.978 356.666C492.712 356.842 492.397 356.986 492.034 357.098C492.877 357.258 493.509 357.559 493.93 358.002C494.357 358.439 494.57 359.015 494.57 359.73C494.57 360.215 494.48 360.658 494.298 361.058C494.122 361.458 493.861 361.802 493.514 362.09C493.173 362.378 492.752 362.602 492.25 362.762C491.749 362.917 491.178 362.994 490.538 362.994H486.49V351.53H490.146ZM498.386 352.794V356.802H503.098V358.066H498.386V362.994H496.834V351.53H503.898V352.794H498.386ZM511.047 358.738L509.247 354.074C509.194 353.935 509.138 353.775 509.079 353.594C509.02 353.407 508.964 353.21 508.911 353.002C508.799 353.434 508.684 353.794 508.567 354.082L506.767 358.738H511.047ZM514.279 362.994H513.079C512.94 362.994 512.828 362.959 512.743 362.89C512.658 362.821 512.594 362.733 512.551 362.626L511.479 359.858H506.335L505.263 362.626C505.231 362.722 505.17 362.807 505.079 362.882C504.988 362.957 504.876 362.994 504.743 362.994H503.543L508.127 351.53H509.695L514.279 362.994ZM517.339 352.794V356.802H522.051V358.066H517.339V362.994H515.787V351.53H522.851V352.794H517.339ZM526.386 352.794V356.802H531.098V358.066H526.386V362.994H524.834V351.53H531.898V352.794H526.386Z" fill="#1A1A1A"/>
<circle cx="380.638" cy="456.494" r="50" fill="#714FFC"/>
<path d="M352.941 455.954H350.965L350.445 458.562H352.421L352.941 455.954ZM355.965 454.906L355.861 455.506C355.834 455.661 355.77 455.775 355.669 455.85C355.573 455.919 355.423 455.954 355.221 455.954H354.117L353.597 458.562H355.029C355.183 458.562 355.293 458.607 355.357 458.698C355.426 458.783 355.445 458.935 355.413 459.154L355.341 459.61H353.445L352.773 462.994H352.125C352.055 462.994 351.991 462.978 351.933 462.946C351.874 462.914 351.823 462.871 351.781 462.818C351.743 462.765 351.717 462.701 351.701 462.626C351.685 462.551 351.685 462.469 351.701 462.378L352.269 459.61H350.293L349.725 462.45C349.693 462.647 349.615 462.789 349.493 462.874C349.37 462.954 349.231 462.994 349.077 462.994H348.437L349.117 459.61H347.949C347.799 459.61 347.69 459.567 347.621 459.482C347.557 459.391 347.541 459.237 347.573 459.018L347.637 458.562H349.269L349.789 455.954H347.933L348.037 455.362C348.063 455.207 348.125 455.093 348.221 455.018C348.322 454.943 348.474 454.906 348.677 454.906H349.941L350.517 452.042C350.549 451.882 350.621 451.757 350.733 451.666C350.85 451.575 350.989 451.53 351.149 451.53H351.789L351.117 454.906H353.093L353.765 451.53H354.397C354.551 451.53 354.671 451.581 354.757 451.682C354.847 451.783 354.879 451.911 354.853 452.066L354.269 454.906H355.965ZM365.03 451.53V452.17C365.03 452.351 365.009 452.501 364.966 452.618C364.929 452.735 364.891 452.834 364.854 452.914L360.102 462.49C360.033 462.629 359.937 462.749 359.814 462.85C359.691 462.946 359.529 462.994 359.326 462.994H358.302L363.118 453.538C363.187 453.405 363.259 453.282 363.334 453.17C363.409 453.058 363.489 452.951 363.574 452.85H357.59C357.499 452.85 357.419 452.815 357.35 452.746C357.281 452.671 357.246 452.589 357.246 452.498V451.53H365.03ZM373.807 461.906V462.994H367.663V461.906H370.119V454.09C370.119 453.855 370.127 453.618 370.143 453.378L368.103 455.13C368.034 455.189 367.965 455.226 367.895 455.242C367.826 455.253 367.762 455.253 367.703 455.242C367.645 455.231 367.589 455.21 367.535 455.178C367.487 455.146 367.45 455.111 367.423 455.074L366.975 454.458L370.391 451.506H371.551V461.906H373.807ZM380.785 458.858V454.13C380.785 453.991 380.79 453.839 380.801 453.674C380.811 453.509 380.827 453.341 380.849 453.17L376.673 458.858H380.785ZM383.769 458.858V459.674C383.769 459.759 383.742 459.831 383.689 459.89C383.641 459.949 383.563 459.978 383.457 459.978H382.033V462.994H380.785V459.978H375.697C375.59 459.978 375.497 459.949 375.417 459.89C375.342 459.826 375.294 459.749 375.273 459.658L375.129 458.93L380.705 451.53H382.033V458.858H383.769ZM387.242 452.794V456.802H391.954V458.066H387.242V462.994H385.69V451.53H392.754V452.794H387.242ZM396.289 452.794V456.802H401.001V458.066H396.289V462.994H394.737V451.53H401.801V452.794H396.289ZM411.722 460.626C411.808 460.626 411.882 460.661 411.946 460.73L412.562 461.394C412.093 461.938 411.522 462.362 410.85 462.666C410.184 462.97 409.376 463.122 408.426 463.122C407.605 463.122 406.858 462.981 406.186 462.698C405.514 462.41 404.941 462.01 404.466 461.498C403.992 460.981 403.624 460.362 403.362 459.642C403.101 458.922 402.97 458.13 402.97 457.266C402.97 456.402 403.106 455.61 403.378 454.89C403.65 454.17 404.032 453.551 404.522 453.034C405.018 452.517 405.61 452.117 406.298 451.834C406.986 451.546 407.746 451.402 408.578 451.402C409.394 451.402 410.114 451.533 410.738 451.794C411.362 452.055 411.912 452.41 412.386 452.858L411.874 453.57C411.842 453.623 411.8 453.669 411.746 453.706C411.698 453.738 411.632 453.754 411.546 453.754C411.45 453.754 411.333 453.703 411.194 453.602C411.056 453.495 410.874 453.378 410.65 453.25C410.426 453.122 410.146 453.007 409.81 452.906C409.474 452.799 409.061 452.746 408.57 452.746C407.978 452.746 407.437 452.85 406.946 453.058C406.456 453.261 406.032 453.557 405.674 453.946C405.322 454.335 405.048 454.81 404.85 455.37C404.653 455.93 404.554 456.562 404.554 457.266C404.554 457.981 404.656 458.618 404.858 459.178C405.066 459.738 405.346 460.213 405.698 460.602C406.056 460.986 406.474 461.279 406.954 461.482C407.44 461.685 407.962 461.786 408.522 461.786C408.864 461.786 409.17 461.767 409.442 461.73C409.72 461.687 409.973 461.623 410.202 461.538C410.437 461.453 410.653 461.346 410.85 461.218C411.053 461.085 411.253 460.927 411.45 460.746C411.541 460.666 411.632 460.626 411.722 460.626Z" fill="#FBFAFF"/>
</g>
<defs>
<linearGradient id="paint0_linear_1665_169" x1="252.139" y1="0.788574" x2="252.139" y2="743.342" gradientUnits="userSpaceOnUse">
<stop stop-color="#FBFAFF"/>
<stop offset="1" stop-color="#714FFC" stop-opacity="0"/>
</linearGradient>
<clipPath id="clip0_1665_169">
<rect width="563" height="527" fill="white" transform="translate(0.698242 0.788574)"/>
</clipPath>
</defs>
</svg>
