<svg width="36" height="36" viewBox="0 0 36 36" fill="none" xmlns="http://www.w3.org/2000/svg">
<path d="M17.7725 0.639893C8.14186 0.639893 0.331787 8.64718 0.331787 18.5249C0.331787 26.4253 5.32919 33.1277 12.2628 35.4948C13.1349 35.6595 13.4532 35.1073 13.4532 34.633C13.4532 34.2077 13.438 33.0832 13.4293 31.5913C8.57794 32.6713 7.55316 29.1931 7.55316 29.1931C6.76169 27.1267 5.617 26.5767 5.617 26.5767C4.03187 25.4678 5.73474 25.4901 5.73474 25.4901C7.48557 25.617 8.40569 27.3338 8.40569 27.3338C9.96247 30.066 12.4895 29.2777 13.4838 28.819C13.6407 27.6634 14.0921 26.8751 14.5914 26.4275C10.7191 25.9755 6.64613 24.4413 6.64613 17.5897C6.64613 15.6369 7.3264 14.0403 8.44275 12.7889C8.26178 12.3369 7.66436 10.5176 8.61282 8.0571C8.61282 8.0571 10.078 7.57613 13.4096 9.88969C14.8007 9.49333 16.2921 9.29516 17.7769 9.28848C19.2574 9.29738 20.7509 9.49333 22.1442 9.89192C25.4736 7.57835 26.9366 8.05933 26.9366 8.05933C27.8873 10.5221 27.2898 12.3391 27.1111 12.7911C28.2296 14.0425 28.9033 15.6391 28.9033 17.5919C28.9033 24.4613 24.826 25.9733 20.9406 26.4164C21.5664 26.9686 22.1246 28.0597 22.1246 29.7275C22.1246 32.119 22.1028 34.0474 22.1028 34.633C22.1028 35.1118 22.4167 35.6684 23.302 35.4925C30.2246 33.1233 35.2177 26.4231 35.2177 18.5249C35.2177 8.64718 27.4076 0.639893 17.7725 0.639893Z" fill="#714FFC"/>
</svg>
