<svg width="35" height="29" viewBox="0 0 35 29" fill="none" xmlns="http://www.w3.org/2000/svg">
<path d="M31.7538 0.539307L3.3596 0.539307C1.69006 0.539307 0.331787 1.9839 0.331787 3.75954L0.331787 25.2278C0.331787 27.0034 1.69006 28.448 3.3596 28.448L31.7538 28.448C33.4233 28.448 34.7816 27.0034 34.7816 25.2278L34.7816 3.75954C34.7816 1.9839 33.4233 0.539307 31.7538 0.539307ZM27.3675 2.68613L17.5567 10.4709L7.7459 2.68613L27.3675 2.68613ZM3.3596 2.68613L4.37029 2.68613L16.9531 12.6705C17.1322 12.8125 17.3444 12.8835 17.5567 12.8835C17.769 12.8835 17.9812 12.8125 18.1602 12.6705L30.7431 2.68613L31.7538 2.68613C32.3099 2.68613 32.7623 3.16695 32.763 3.75825L17.5567 15.8374L2.3504 3.75825C2.35107 3.16695 2.80349 2.68613 3.3596 2.68613ZM16.9527 18.0372C17.1319 18.1795 17.3443 18.2506 17.5567 18.2506C17.7691 18.2506 17.9815 18.1795 18.1606 18.0372L28.726 9.64456L28.726 26.3012L6.38742 26.3012L6.38742 9.64456L16.9527 18.0372ZM2.35033 25.2278L2.35033 6.4377L4.36887 8.04116L4.36887 26.3012H3.3596C2.80309 26.3012 2.35033 25.8196 2.35033 25.2278ZM31.7538 26.3012H30.7445L30.7445 8.04116L32.763 6.4377L32.763 25.2278C32.763 25.8196 32.3103 26.3012 31.7538 26.3012Z" fill="#714FFC"/>
</svg>
