<svg width="36" height="35" viewBox="0 0 36 35" fill="none" xmlns="http://www.w3.org/2000/svg">
<g clip-path="url(#clip0_2081_99)">
<path d="M35.1835 10.3669C35.1018 8.51327 34.802 7.23892 34.3726 6.13469C33.9297 4.96256 33.2482 3.91316 32.3553 3.04079C31.4829 2.15484 30.4266 1.46643 29.2681 1.03037C28.1574 0.600977 26.8897 0.301224 25.0361 0.219498C23.1687 0.13085 22.5758 0.110352 17.8394 0.110352C13.103 0.110352 12.5101 0.13085 10.6496 0.212576C8.79598 0.294303 7.52164 0.594321 6.41766 1.02345C5.24528 1.46643 4.19588 2.14792 3.32351 3.04079C2.43756 3.91316 1.74941 4.96948 1.31309 6.12803C0.883691 7.23892 0.583939 8.50635 0.502212 10.36C0.413565 12.2274 0.393066 12.8203 0.393066 17.5567C0.393066 22.2931 0.413565 22.886 0.495291 24.7465C0.577017 26.6001 0.877036 27.8745 1.30643 28.9787C1.74941 30.1508 2.43756 31.2002 3.32351 32.0726C4.19588 32.9585 5.2522 33.647 6.41074 34.083C7.52164 34.5124 8.78906 34.8122 10.6429 34.8939C12.5032 34.9759 13.0963 34.9961 17.8327 34.9961C22.5692 34.9961 23.162 34.9759 25.0225 34.8939C26.8762 34.8122 28.1505 34.5124 29.2545 34.083C31.599 33.1766 33.4526 31.3229 34.3591 28.9787C34.7882 27.8678 35.0882 26.6001 35.1699 24.7465C35.2517 22.886 35.2722 22.2931 35.2722 17.5567C35.2722 12.8203 35.2652 12.2274 35.1835 10.3669ZM32.042 24.6102C31.9669 26.3139 31.6807 27.234 31.4422 27.8473C30.856 29.3671 29.6498 30.5733 28.13 31.1595C27.5167 31.398 26.59 31.6842 24.8929 31.759C23.0529 31.841 22.501 31.8612 17.8463 31.8612C13.1916 31.8612 12.6329 31.841 10.7995 31.759C9.09574 31.6842 8.17571 31.398 7.56237 31.1595C6.80606 30.88 6.11765 30.437 5.55887 29.8577C4.9796 29.292 4.53662 28.6105 4.2571 27.8542C4.01858 27.2409 3.7324 26.3139 3.6576 24.6171C3.57561 22.7771 3.55537 22.225 3.55537 17.5703C3.55537 12.9156 3.57561 12.3568 3.6576 10.5237C3.7324 8.81995 4.01858 7.89992 4.2571 7.28658C4.53662 6.53001 4.9796 5.84185 5.56579 5.28281C6.13122 4.70354 6.81272 4.26057 7.56929 3.98131C8.18264 3.74279 9.10958 3.45661 10.8064 3.38154C12.6464 3.29981 13.1986 3.27932 17.853 3.27932C22.5146 3.27932 23.0664 3.29981 24.8998 3.38154C26.6036 3.45661 27.5236 3.74279 28.1369 3.98131C28.8932 4.26057 29.5817 4.70354 30.1404 5.28281C30.7197 5.84851 31.1627 6.53001 31.4422 7.28658C31.6807 7.89992 31.9669 8.8266 32.042 10.5237C32.1237 12.3637 32.1442 12.9156 32.1442 17.5703C32.1442 22.225 32.1237 22.7702 32.042 24.6102Z" fill="#714FFC"/>
<path d="M17.8396 8.59473C12.8921 8.59473 8.87793 12.6086 8.87793 17.5564C8.87793 22.5042 12.8921 26.5181 17.8396 26.5181C22.7874 26.5181 26.8013 22.5042 26.8013 17.5564C26.8013 12.6086 22.7874 8.59473 17.8396 8.59473ZM17.8396 23.3697C14.6299 23.3697 12.0264 20.7664 12.0264 17.5564C12.0264 14.3465 14.6299 11.7432 17.8396 11.7432C21.0496 11.7432 23.6528 14.3465 23.6528 17.5564C23.6528 20.7664 21.0496 23.3697 17.8396 23.3697V23.3697Z" fill="#714FFC"/>
<path d="M29.248 8.24058C29.248 9.39594 28.3112 10.3327 27.1556 10.3327C26.0003 10.3327 25.0635 9.39594 25.0635 8.24058C25.0635 7.08496 26.0003 6.14844 27.1556 6.14844C28.3112 6.14844 29.248 7.08496 29.248 8.24058V8.24058Z" fill="#714FFC"/>
</g>
<defs>
<clipPath id="clip0_2081_99">
<rect width="34.8859" height="34.8859" fill="white" transform="translate(0.332031 0.110352)"/>
</clipPath>
</defs>
</svg>
