<svg width="36" height="35" viewBox="0 0 36 35" fill="none" xmlns="http://www.w3.org/2000/svg">
<g clip-path="url(#clip0_1669_170)">
<path d="M17.889 34.9858C27.5224 34.9858 35.3319 27.1764 35.3319 17.5429C35.3319 7.90944 27.5224 0.0999756 17.889 0.0999756C8.25551 0.0999756 0.446045 7.90944 0.446045 17.5429C0.446045 27.1764 8.25551 34.9858 17.889 34.9858Z" fill="#714FFC"/>
<path d="M28.3108 18.9472L28.3108 26.1385L24.1414 26.1385L24.1414 19.4291C24.1414 17.7445 23.5395 16.594 22.0299 16.594C20.8778 16.594 20.1935 17.3686 19.8912 18.1185C19.7815 18.3866 19.7532 18.7588 19.7532 19.1347L19.7532 26.1382H15.5835C15.5835 26.1382 15.6395 14.7747 15.5835 13.5984L19.7535 13.5984V15.3755C19.7451 15.3894 19.7333 15.4031 19.7258 15.4165H19.7535V15.3755C20.3076 14.5229 21.2957 13.304 23.5112 13.304C26.2542 13.304 28.3108 15.0962 28.3108 18.9472ZM11.2217 7.55383C9.79543 7.55383 8.8623 8.49006 8.8623 9.72013C8.8623 10.9241 9.76837 11.8874 11.167 11.8874H11.194C12.6483 11.8874 13.5525 10.9241 13.5525 9.72013C13.5248 8.49006 12.6483 7.55383 11.2217 7.55383ZM9.11012 26.1385H13.2782L13.2782 13.5984L9.11012 13.5984L9.11012 26.1385Z" fill="#1A1A1A"/>
</g>
<defs>
<clipPath id="clip0_1669_170">
<rect width="34.8859" height="34.8859" fill="white" transform="translate(0.446045 0.100952)"/>
</clipPath>
</defs>
</svg>
