<svg width="2455" height="1402" viewBox="0 0 2455 1402" fill="none" xmlns="http://www.w3.org/2000/svg">
<rect width="2455" height="1402" fill="#E7E5E0"/>
<rect width="200" height="100" fill="#EBF0F4"/>
<rect y="164" width="200" height="100" fill="#F4F4F4"/>
<rect y="328" width="200" height="100" fill="#74747E"/>
<rect y="492" width="200" height="100" fill="#E7D5CE"/>
<rect y="656" width="200" height="100" fill="#C0B8AF"/>
<rect y="820" width="200" height="100" fill="#81755C"/>
<path d="M754.705 368L762.732 325.344H765.662L757.635 368H754.705ZM766.805 368L774.861 325.344H777.791L769.734 368H766.805ZM782.186 340.344H751.717V337.531H782.186V340.344ZM779.988 355.988H749.49V353.205H779.988V355.988ZM792.145 325.344V368H788.542V325.344H792.145ZM812.009 344.973V348.078H790.944V344.973H812.009ZM814.968 325.344V328.449H790.944V325.344H814.968ZM827.095 325.344V368H823.492V325.344H827.095ZM846.959 344.973V348.078H825.894V344.973H846.959ZM849.918 325.344V328.449H825.894V325.344H849.918ZM862.045 325.344V368H858.442V325.344H862.045ZM881.909 344.973V348.078H860.844V344.973H881.909ZM884.868 325.344V328.449H860.844V325.344H884.868ZM919.905 364.924V368H895.911V364.924H919.905ZM896.995 325.344V368H893.392V325.344H896.995ZM916.917 344.475V347.551H895.911V344.475H916.917ZM919.759 325.344V328.449H895.911V325.344H919.759ZM932.355 325.344V368H928.752V325.344H932.355ZM952.219 344.973V348.078H931.154V344.973H952.219ZM955.178 325.344V328.449H931.154V325.344H955.178ZM978.38 347.492H966.368L966.309 344.445H976.651C978.761 344.445 980.557 344.143 982.042 343.537C983.526 342.932 984.649 342.033 985.411 340.842C986.192 339.631 986.583 338.146 986.583 336.389C986.583 334.592 986.202 333.107 985.44 331.936C984.679 330.744 983.536 329.865 982.012 329.299C980.489 328.732 978.575 328.449 976.27 328.449H967.305V368H963.702V325.344H976.27C978.438 325.344 980.382 325.559 982.1 325.988C983.819 326.418 985.284 327.092 986.495 328.01C987.706 328.928 988.624 330.09 989.249 331.496C989.893 332.883 990.216 334.543 990.216 336.477C990.216 338.234 989.825 339.826 989.044 341.252C988.262 342.658 987.159 343.811 985.733 344.709C984.327 345.588 982.637 346.135 980.665 346.35L978.38 347.492ZM978.116 368H965.225L967.071 364.924H978.116C980.225 364.924 982.022 364.572 983.507 363.869C985.011 363.146 986.163 362.121 986.964 360.793C987.764 359.465 988.165 357.883 988.165 356.047C988.165 354.426 987.813 352.971 987.11 351.682C986.407 350.393 985.333 349.377 983.887 348.635C982.442 347.873 980.606 347.492 978.38 347.492H970.909L970.968 344.445H981.544L982.188 345.529C984.102 345.725 985.772 346.32 987.198 347.316C988.643 348.293 989.757 349.533 990.538 351.037C991.339 352.541 991.739 354.191 991.739 355.988C991.739 358.566 991.163 360.754 990.011 362.551C988.878 364.328 987.286 365.686 985.235 366.623C983.204 367.541 980.831 368 978.116 368Z" fill="black"/>
<rect x="747.5" y="416.5" width="479" height="199" fill="#FFFEFB" stroke="black"/>
<path d="M754.705 706L762.732 663.344H765.662L757.635 706H754.705ZM766.805 706L774.861 663.344H777.791L769.734 706H766.805ZM782.186 678.344H751.717V675.531H782.186V678.344ZM779.988 693.988H749.49V691.205H779.988V693.988ZM803.454 663.168V706H799.968V667.592L788.366 671.898V668.588L802.868 663.168H803.454ZM837.935 663.168V706H834.449V667.592L822.847 671.898V668.588L837.349 663.168H837.935ZM872.416 663.168V706H868.93V667.592L857.329 671.898V668.588L871.83 663.168H872.416ZM918.763 692.23V695.219H888.558V693.197L908.275 663.344H911.204L907.044 670.58L892.835 692.23H918.763ZM912.113 663.344V706H908.626V663.344H912.113ZM941.379 663.168V706H937.893V667.592L926.291 671.898V668.588L940.793 663.168H941.379ZM975.86 663.168V706H972.374V667.592L960.772 671.898V668.588L975.274 663.168H975.86Z" fill="black"/>
<rect x="747" y="754" width="480" height="200" fill="#111411"/>
<path d="M1418.78 354.234H1435.25C1438.99 354.234 1442.14 354.804 1444.72 355.943C1447.32 357.083 1449.29 358.769 1450.63 361.002C1452 363.212 1452.68 365.935 1452.68 369.171C1452.68 371.45 1452.22 373.535 1451.28 375.426C1450.37 377.294 1449.05 378.889 1447.32 380.211C1445.61 381.51 1443.56 382.478 1441.16 383.116L1439.32 383.834H1423.83L1423.77 378.468H1435.46C1437.83 378.468 1439.8 378.058 1441.37 377.237C1442.94 376.394 1444.13 375.266 1444.92 373.854C1445.72 372.441 1446.12 370.88 1446.12 369.171C1446.12 367.257 1445.74 365.582 1444.99 364.146C1444.24 362.711 1443.06 361.606 1441.44 360.831C1439.84 360.034 1437.78 359.635 1435.25 359.635H1425.37V404H1418.78V354.234ZM1447.86 404L1435.76 381.441L1442.63 381.407L1454.9 403.59V404H1447.86ZM1460.68 385.919V385.133C1460.68 382.467 1461.07 379.994 1461.84 377.716C1462.62 375.414 1463.73 373.421 1465.19 371.734C1466.65 370.025 1468.42 368.704 1470.49 367.77C1472.56 366.812 1474.89 366.334 1477.46 366.334C1480.06 366.334 1482.39 366.812 1484.47 367.77C1486.56 368.704 1488.34 370.025 1489.8 371.734C1491.28 373.421 1492.41 375.414 1493.18 377.716C1493.96 379.994 1494.35 382.467 1494.35 385.133V385.919C1494.35 388.585 1493.96 391.057 1493.18 393.336C1492.41 395.615 1491.28 397.608 1489.8 399.317C1488.34 401.004 1486.58 402.325 1484.5 403.282C1482.45 404.216 1480.13 404.684 1477.53 404.684C1474.93 404.684 1472.6 404.216 1470.52 403.282C1468.45 402.325 1466.67 401.004 1465.19 399.317C1463.73 397.608 1462.62 395.615 1461.84 393.336C1461.07 391.057 1460.68 388.585 1460.68 385.919ZM1467 385.133V385.919C1467 387.765 1467.22 389.508 1467.65 391.148C1468.08 392.766 1468.73 394.202 1469.6 395.455C1470.49 396.708 1471.59 397.7 1472.92 398.429C1474.24 399.135 1475.78 399.488 1477.53 399.488C1479.26 399.488 1480.78 399.135 1482.08 398.429C1483.4 397.7 1484.49 396.708 1485.36 395.455C1486.22 394.202 1486.87 392.766 1487.31 391.148C1487.76 389.508 1487.99 387.765 1487.99 385.919V385.133C1487.99 383.31 1487.76 381.59 1487.31 379.972C1486.87 378.331 1486.21 376.884 1485.32 375.631C1484.46 374.355 1483.36 373.352 1482.04 372.623C1480.74 371.894 1479.22 371.529 1477.46 371.529C1475.73 371.529 1474.2 371.894 1472.88 372.623C1471.58 373.352 1470.49 374.355 1469.6 375.631C1468.73 376.884 1468.08 378.331 1467.65 379.972C1467.22 381.59 1467 383.31 1467 385.133ZM1503.64 351.5H1510V396.822L1509.45 404H1503.64V351.5ZM1534.98 385.201V385.919C1534.98 388.608 1534.67 391.103 1534.03 393.404C1533.39 395.683 1532.46 397.665 1531.22 399.352C1529.99 401.038 1528.49 402.348 1526.71 403.282C1524.94 404.216 1522.9 404.684 1520.59 404.684C1518.25 404.684 1516.19 404.285 1514.41 403.487C1512.65 402.667 1511.17 401.493 1509.97 399.967C1508.76 398.44 1507.79 396.594 1507.06 394.43C1506.35 392.265 1505.86 389.827 1505.59 387.115V383.971C1505.86 381.236 1506.35 378.787 1507.06 376.622C1507.79 374.457 1508.76 372.612 1509.97 371.085C1511.17 369.535 1512.65 368.362 1514.41 367.564C1516.16 366.744 1518.2 366.334 1520.53 366.334C1522.85 366.334 1524.91 366.79 1526.71 367.701C1528.51 368.59 1530.02 369.866 1531.22 371.529C1532.46 373.193 1533.39 375.187 1534.03 377.511C1534.67 379.812 1534.98 382.376 1534.98 385.201ZM1528.63 385.919V385.201C1528.63 383.355 1528.46 381.624 1528.11 380.006C1527.77 378.365 1527.23 376.93 1526.47 375.699C1525.72 374.446 1524.73 373.466 1523.5 372.76C1522.27 372.031 1520.75 371.666 1518.95 371.666C1517.36 371.666 1515.97 371.939 1514.78 372.486C1513.62 373.033 1512.63 373.774 1511.81 374.708C1510.99 375.619 1510.32 376.668 1509.79 377.853C1509.29 379.015 1508.92 380.222 1508.67 381.476V389.713C1509.03 391.308 1509.62 392.846 1510.44 394.327C1511.29 395.785 1512.4 396.982 1513.79 397.916C1515.21 398.85 1516.95 399.317 1519.02 399.317C1520.73 399.317 1522.19 398.976 1523.4 398.292C1524.63 397.586 1525.62 396.617 1526.37 395.387C1527.15 394.156 1527.72 392.732 1528.08 391.114C1528.44 389.496 1528.63 387.765 1528.63 385.919ZM1542.71 385.919V385.133C1542.71 382.467 1543.1 379.994 1543.87 377.716C1544.64 375.414 1545.76 373.421 1547.22 371.734C1548.68 370.025 1550.44 368.704 1552.52 367.77C1554.59 366.812 1556.92 366.334 1559.49 366.334C1562.09 366.334 1564.42 366.812 1566.5 367.77C1568.59 368.704 1570.37 370.025 1571.83 371.734C1573.31 373.421 1574.44 375.414 1575.21 377.716C1575.99 379.994 1576.37 382.467 1576.37 385.133V385.919C1576.37 388.585 1575.99 391.057 1575.21 393.336C1574.44 395.615 1573.31 397.608 1571.83 399.317C1570.37 401.004 1568.6 402.325 1566.53 403.282C1564.48 404.216 1562.16 404.684 1559.56 404.684C1556.96 404.684 1554.63 404.216 1552.55 403.282C1550.48 402.325 1548.7 401.004 1547.22 399.317C1545.76 397.608 1544.64 395.615 1543.87 393.336C1543.1 391.057 1542.71 388.585 1542.71 385.919ZM1549.03 385.133V385.919C1549.03 387.765 1549.25 389.508 1549.68 391.148C1550.11 392.766 1550.76 394.202 1551.63 395.455C1552.52 396.708 1553.62 397.7 1554.94 398.429C1556.27 399.135 1557.8 399.488 1559.56 399.488C1561.29 399.488 1562.81 399.135 1564.1 398.429C1565.43 397.7 1566.52 396.708 1567.39 395.455C1568.25 394.202 1568.9 392.766 1569.33 391.148C1569.79 389.508 1570.02 387.765 1570.02 385.919V385.133C1570.02 383.31 1569.79 381.59 1569.33 379.972C1568.9 378.331 1568.24 376.884 1567.35 375.631C1566.49 374.355 1565.39 373.352 1564.07 372.623C1562.77 371.894 1561.24 371.529 1559.49 371.529C1557.76 371.529 1556.23 371.894 1554.91 372.623C1553.61 373.352 1552.52 374.355 1551.63 375.631C1550.76 376.884 1550.11 378.331 1549.68 379.972C1549.25 381.59 1549.03 383.31 1549.03 385.133ZM1601.19 367.018V371.871H1581.19V367.018H1601.19ZM1587.96 358.028H1594.28V394.84C1594.28 396.093 1594.48 397.039 1594.86 397.677C1595.25 398.315 1595.75 398.736 1596.37 398.941C1596.98 399.146 1597.64 399.249 1598.35 399.249C1598.88 399.249 1599.42 399.203 1599.99 399.112C1600.58 398.998 1601.03 398.907 1601.32 398.839L1601.36 404C1600.86 404.16 1600.2 404.308 1599.38 404.444C1598.58 404.604 1597.61 404.684 1596.47 404.684C1594.92 404.684 1593.5 404.376 1592.2 403.761C1590.9 403.146 1589.86 402.12 1589.09 400.685C1588.34 399.226 1587.96 397.267 1587.96 394.806V358.028ZM1607.65 385.919V385.133C1607.65 382.467 1608.03 379.994 1608.81 377.716C1609.58 375.414 1610.7 373.421 1612.16 371.734C1613.62 370.025 1615.38 368.704 1617.46 367.77C1619.53 366.812 1621.85 366.334 1624.43 366.334C1627.03 366.334 1629.36 366.812 1631.44 367.77C1633.53 368.704 1635.31 370.025 1636.77 371.734C1638.25 373.421 1639.38 375.414 1640.15 377.716C1640.93 379.994 1641.31 382.467 1641.31 385.133V385.919C1641.31 388.585 1640.93 391.057 1640.15 393.336C1639.38 395.615 1638.25 397.608 1636.77 399.317C1635.31 401.004 1633.54 402.325 1631.47 403.282C1629.42 404.216 1627.09 404.684 1624.5 404.684C1621.9 404.684 1619.56 404.216 1617.49 403.282C1615.42 402.325 1613.64 401.004 1612.16 399.317C1610.7 397.608 1609.58 395.615 1608.81 393.336C1608.03 391.057 1607.65 388.585 1607.65 385.919ZM1613.97 385.133V385.919C1613.97 387.765 1614.19 389.508 1614.62 391.148C1615.05 392.766 1615.7 394.202 1616.57 395.455C1617.46 396.708 1618.56 397.7 1619.88 398.429C1621.2 399.135 1622.74 399.488 1624.5 399.488C1626.23 399.488 1627.74 399.135 1629.04 398.429C1630.36 397.7 1631.46 396.708 1632.32 395.455C1633.19 394.202 1633.84 392.766 1634.27 391.148C1634.73 389.508 1634.96 387.765 1634.96 385.919V385.133C1634.96 383.31 1634.73 381.59 1634.27 379.972C1633.84 378.331 1633.18 376.884 1632.29 375.631C1631.42 374.355 1630.33 373.352 1629.01 372.623C1627.71 371.894 1626.18 371.529 1624.43 371.529C1622.7 371.529 1621.17 371.894 1619.85 372.623C1618.55 373.352 1617.46 374.355 1616.57 375.631C1615.7 376.884 1615.05 378.331 1614.62 379.972C1614.19 381.59 1613.97 383.31 1613.97 385.133Z" fill="black"/>
<path d="M1436.93 566.159H1424.14L1424.07 559.118H1434.81C1436.7 559.118 1438.25 558.879 1439.46 558.4C1440.66 557.899 1441.56 557.181 1442.16 556.247C1442.77 555.29 1443.08 554.128 1443.08 552.761C1443.08 551.211 1442.78 549.958 1442.19 549.001C1441.62 548.044 1440.72 547.349 1439.49 546.916C1438.28 546.483 1436.72 546.267 1434.81 546.267H1427.7V588H1417.44V538.234H1434.81C1437.7 538.234 1440.29 538.508 1442.57 539.055C1444.87 539.602 1446.82 540.433 1448.41 541.55C1450.01 542.666 1451.22 544.079 1452.07 545.788C1452.91 547.474 1453.33 549.479 1453.33 551.804C1453.33 553.854 1452.86 555.746 1451.93 557.478C1451.02 559.209 1449.57 560.622 1447.59 561.716C1445.63 562.81 1443.07 563.413 1439.9 563.527L1436.93 566.159ZM1436.48 588H1421.34L1425.34 580.002H1436.48C1438.28 580.002 1439.75 579.717 1440.89 579.147C1442.03 578.555 1442.87 577.757 1443.42 576.755C1443.97 575.752 1444.24 574.602 1444.24 573.303C1444.24 571.844 1443.99 570.58 1443.49 569.509C1443.01 568.438 1442.24 567.618 1441.16 567.048C1440.09 566.455 1438.68 566.159 1436.93 566.159H1427.05L1427.12 559.118H1439.42L1441.78 561.887C1444.81 561.841 1447.25 562.377 1449.09 563.493C1450.96 564.587 1452.32 566.011 1453.16 567.766C1454.03 569.52 1454.46 571.4 1454.46 573.405C1454.46 576.595 1453.76 579.284 1452.38 581.472C1450.99 583.636 1448.95 585.266 1446.26 586.359C1443.59 587.453 1440.33 588 1436.48 588ZM1461.36 569.885V569.167C1461.36 566.455 1461.75 563.96 1462.53 561.682C1463.3 559.38 1464.43 557.386 1465.91 555.7C1467.39 554.014 1469.21 552.704 1471.38 551.77C1473.54 550.812 1476.03 550.334 1478.83 550.334C1481.63 550.334 1484.13 550.812 1486.31 551.77C1488.5 552.704 1490.34 554.014 1491.82 555.7C1493.32 557.386 1494.46 559.38 1495.23 561.682C1496.01 563.96 1496.4 566.455 1496.4 569.167V569.885C1496.4 572.574 1496.01 575.069 1495.23 577.37C1494.46 579.649 1493.32 581.643 1491.82 583.352C1490.34 585.038 1488.51 586.348 1486.35 587.282C1484.18 588.216 1481.7 588.684 1478.9 588.684C1476.09 588.684 1473.6 588.216 1471.41 587.282C1469.25 586.348 1467.41 585.038 1465.91 583.352C1464.43 581.643 1463.3 579.649 1462.53 577.37C1461.75 575.069 1461.36 572.574 1461.36 569.885ZM1471.21 569.167V569.885C1471.21 571.434 1471.34 572.881 1471.62 574.226C1471.89 575.57 1472.32 576.755 1472.92 577.78C1473.53 578.783 1474.33 579.569 1475.31 580.139C1476.29 580.708 1477.48 580.993 1478.9 580.993C1480.26 580.993 1481.44 580.708 1482.42 580.139C1483.4 579.569 1484.18 578.783 1484.78 577.78C1485.37 576.755 1485.8 575.57 1486.07 574.226C1486.37 572.881 1486.52 571.434 1486.52 569.885V569.167C1486.52 567.663 1486.37 566.25 1486.07 564.929C1485.8 563.584 1485.36 562.399 1484.74 561.374C1484.15 560.326 1483.36 559.506 1482.38 558.913C1481.4 558.321 1480.22 558.024 1478.83 558.024C1477.44 558.024 1476.25 558.321 1475.27 558.913C1474.32 559.506 1473.53 560.326 1472.92 561.374C1472.32 562.399 1471.89 563.584 1471.62 564.929C1471.34 566.25 1471.21 567.663 1471.21 569.167ZM1514.24 535.5V588H1504.36V535.5H1514.24ZM1545.61 579.934V535.5H1555.53V588H1546.6L1545.61 579.934ZM1522.23 569.953V569.235C1522.23 566.41 1522.55 563.846 1523.19 561.545C1523.83 559.221 1524.76 557.227 1525.99 555.563C1527.22 553.9 1528.74 552.613 1530.54 551.701C1532.34 550.79 1534.39 550.334 1536.69 550.334C1538.86 550.334 1540.75 550.79 1542.37 551.701C1544.01 552.613 1545.4 553.911 1546.54 555.598C1547.7 557.261 1548.63 559.232 1549.34 561.511C1550.05 563.767 1550.56 566.239 1550.88 568.928V570.5C1550.56 573.075 1550.05 575.467 1549.34 577.678C1548.63 579.888 1547.7 581.825 1546.54 583.488C1545.4 585.129 1544.01 586.405 1542.37 587.316C1540.73 588.228 1538.81 588.684 1536.62 588.684C1534.32 588.684 1532.27 588.216 1530.47 587.282C1528.69 586.348 1527.19 585.038 1525.96 583.352C1524.75 581.665 1523.83 579.683 1523.19 577.404C1522.55 575.126 1522.23 572.642 1522.23 569.953ZM1532.08 569.235V569.953C1532.08 571.48 1532.19 572.904 1532.42 574.226C1532.67 575.547 1533.07 576.721 1533.62 577.746C1534.19 578.749 1534.91 579.535 1535.8 580.104C1536.71 580.651 1537.82 580.925 1539.12 580.925C1540.81 580.925 1542.2 580.549 1543.29 579.797C1544.38 579.022 1545.21 577.963 1545.78 576.618C1546.38 575.274 1546.72 573.724 1546.81 571.97V567.492C1546.74 566.057 1546.54 564.769 1546.19 563.63C1545.88 562.468 1545.4 561.477 1544.76 560.656C1544.14 559.836 1543.37 559.198 1542.43 558.742C1541.52 558.286 1540.44 558.059 1539.19 558.059C1537.91 558.059 1536.82 558.355 1535.91 558.947C1534.99 559.517 1534.25 560.303 1533.68 561.306C1533.14 562.308 1532.73 563.493 1532.45 564.86C1532.2 566.205 1532.08 567.663 1532.08 569.235ZM1617.08 580.31V588H1583.04V581.438L1599.14 564.177C1600.75 562.377 1602.03 560.793 1602.96 559.426C1603.9 558.036 1604.57 556.794 1604.98 555.7C1605.41 554.584 1605.63 553.524 1605.63 552.521C1605.63 551.018 1605.38 549.73 1604.88 548.659C1604.38 547.565 1603.64 546.722 1602.66 546.13C1601.7 545.537 1600.51 545.241 1599.1 545.241C1597.6 545.241 1596.3 545.606 1595.21 546.335C1594.13 547.064 1593.31 548.078 1592.74 549.377C1592.2 550.676 1591.92 552.146 1591.92 553.786H1582.05C1582.05 550.824 1582.75 548.112 1584.17 545.651C1585.58 543.168 1587.57 541.197 1590.15 539.738C1592.72 538.257 1595.77 537.517 1599.31 537.517C1602.79 537.517 1605.73 538.086 1608.12 539.226C1610.54 540.342 1612.36 541.96 1613.59 544.079C1614.85 546.175 1615.47 548.682 1615.47 551.599C1615.47 553.239 1615.21 554.846 1614.69 556.418C1614.16 557.967 1613.41 559.517 1612.43 561.066C1611.47 562.593 1610.31 564.143 1608.95 565.715C1607.58 567.287 1606.06 568.916 1604.4 570.603L1595.75 580.31H1617.08ZM1659.5 569.406V577.131H1623.64L1623.16 571.149L1643.91 538.234H1651.74L1643.26 552.419L1632.94 569.406H1659.5ZM1653.86 538.234V588H1644.01V538.234H1653.86ZM1676.48 558.127V602.219H1666.64V551.018H1675.76L1676.48 558.127ZM1699.89 569.099V569.816C1699.89 572.505 1699.58 575 1698.94 577.302C1698.32 579.603 1697.41 581.608 1696.2 583.317C1695 585.004 1693.49 586.325 1691.69 587.282C1689.91 588.216 1687.86 588.684 1685.54 588.684C1683.28 588.684 1681.32 588.228 1679.66 587.316C1678 586.405 1676.6 585.129 1675.46 583.488C1674.34 581.825 1673.44 579.899 1672.76 577.712C1672.07 575.524 1671.55 573.177 1671.18 570.671V568.791C1671.55 566.102 1672.07 563.641 1672.76 561.408C1673.44 559.152 1674.34 557.204 1675.46 555.563C1676.6 553.9 1677.99 552.613 1679.63 551.701C1681.29 550.79 1683.24 550.334 1685.47 550.334C1687.82 550.334 1689.88 550.778 1691.66 551.667C1693.46 552.556 1694.96 553.832 1696.17 555.495C1697.4 557.159 1698.32 559.141 1698.94 561.442C1699.58 563.744 1699.89 566.296 1699.89 569.099ZM1690.02 569.816V569.099C1690.02 567.526 1689.88 566.079 1689.61 564.758C1689.36 563.413 1688.95 562.24 1688.38 561.237C1687.83 560.235 1687.1 559.46 1686.19 558.913C1685.3 558.343 1684.22 558.059 1682.94 558.059C1681.6 558.059 1680.45 558.275 1679.49 558.708C1678.56 559.141 1677.79 559.768 1677.2 560.588C1676.61 561.408 1676.16 562.388 1675.87 563.527C1675.57 564.667 1675.39 565.954 1675.32 567.39V572.141C1675.43 573.827 1675.75 575.342 1676.28 576.687C1676.8 578.008 1677.61 579.056 1678.7 579.831C1679.8 580.606 1681.23 580.993 1683.01 580.993C1684.31 580.993 1685.4 580.708 1686.29 580.139C1687.18 579.546 1687.9 578.737 1688.44 577.712C1689.01 576.687 1689.41 575.502 1689.64 574.157C1689.89 572.813 1690.02 571.366 1690.02 569.816ZM1714.8 551.018L1720.91 562.263L1727.2 551.018H1737.7L1727.24 569.099L1738.17 588H1727.65L1720.98 576.105L1714.32 588H1703.79L1714.73 569.099L1704.27 551.018H1714.8Z" fill="black"/>
<path d="M1421.54 636.234H1429.2L1443.59 674.618L1457.95 636.234H1465.6L1446.6 686H1440.51L1421.54 636.234ZM1418.06 636.234H1425.34L1426.6 669.457V686H1418.06V636.234ZM1461.81 636.234H1469.12V686H1460.54V669.457L1461.81 636.234ZM1496.19 686.684C1493.46 686.684 1490.99 686.239 1488.78 685.351C1486.59 684.439 1484.72 683.174 1483.17 681.557C1481.64 679.939 1480.47 678.036 1479.65 675.849C1478.83 673.661 1478.42 671.303 1478.42 668.773V667.406C1478.42 664.512 1478.84 661.892 1479.68 659.545C1480.53 657.198 1481.7 655.193 1483.2 653.529C1484.71 651.843 1486.48 650.556 1488.54 649.667C1490.59 648.778 1492.81 648.334 1495.2 648.334C1497.84 648.334 1500.16 648.778 1502.14 649.667C1504.12 650.556 1505.76 651.809 1507.06 653.427C1508.38 655.022 1509.36 656.924 1510 659.135C1510.66 661.345 1510.99 663.783 1510.99 666.449V669.97H1482.42V664.057H1502.86V663.407C1502.81 661.926 1502.52 660.536 1501.97 659.237C1501.44 657.938 1500.64 656.89 1499.54 656.093C1498.45 655.295 1496.99 654.896 1495.17 654.896C1493.8 654.896 1492.58 655.193 1491.51 655.785C1490.46 656.355 1489.58 657.187 1488.88 658.28C1488.17 659.374 1487.62 660.696 1487.24 662.245C1486.87 663.772 1486.69 665.492 1486.69 667.406V668.773C1486.69 670.391 1486.91 671.895 1487.34 673.285C1487.8 674.652 1488.46 675.849 1489.32 676.874C1490.19 677.899 1491.24 678.708 1492.47 679.301C1493.7 679.87 1495.1 680.155 1496.67 680.155C1498.65 680.155 1500.42 679.757 1501.97 678.959C1503.52 678.161 1504.86 677.034 1506 675.575L1510.34 679.779C1509.54 680.941 1508.51 682.058 1507.23 683.129C1505.96 684.177 1504.4 685.032 1502.55 685.692C1500.73 686.353 1498.61 686.684 1496.19 686.684ZM1541.38 678.344V633.5H1549.65V686H1542.16L1541.38 678.344ZM1517.31 667.919V667.201C1517.31 664.398 1517.64 661.846 1518.3 659.545C1518.97 657.221 1519.92 655.227 1521.18 653.563C1522.43 651.877 1523.96 650.59 1525.76 649.701C1527.56 648.79 1529.58 648.334 1531.84 648.334C1534.07 648.334 1536.03 648.767 1537.72 649.633C1539.41 650.499 1540.84 651.741 1542.03 653.358C1543.21 654.953 1544.16 656.868 1544.86 659.101C1545.57 661.311 1546.07 663.772 1546.37 666.483V668.773C1546.07 671.417 1545.57 673.832 1544.86 676.02C1544.16 678.207 1543.21 680.098 1542.03 681.693C1540.84 683.288 1539.39 684.519 1537.68 685.385C1536 686.251 1534.03 686.684 1531.77 686.684C1529.54 686.684 1527.52 686.216 1525.72 685.282C1523.94 684.348 1522.43 683.038 1521.18 681.352C1519.92 679.665 1518.97 677.683 1518.3 675.404C1517.64 673.103 1517.31 670.608 1517.31 667.919ZM1525.55 667.201V667.919C1525.55 669.605 1525.7 671.177 1526 672.636C1526.31 674.094 1526.8 675.382 1527.47 676.498C1528.13 677.592 1528.98 678.458 1530.03 679.096C1531.1 679.711 1532.38 680.019 1533.86 680.019C1535.73 680.019 1537.26 679.608 1538.47 678.788C1539.68 677.968 1540.62 676.863 1541.31 675.473C1542.01 674.06 1542.49 672.488 1542.74 670.756V664.569C1542.61 663.225 1542.32 661.972 1541.89 660.81C1541.48 659.647 1540.92 658.633 1540.21 657.768C1539.51 656.879 1538.63 656.195 1537.58 655.717C1536.56 655.215 1535.34 654.965 1533.93 654.965C1532.42 654.965 1531.15 655.284 1530.1 655.922C1529.05 656.56 1528.18 657.437 1527.5 658.554C1526.84 659.67 1526.35 660.969 1526.03 662.45C1525.71 663.931 1525.55 665.515 1525.55 667.201ZM1568.48 649.018V686H1560.21V649.018H1568.48ZM1559.66 639.311C1559.66 638.057 1560.07 637.021 1560.89 636.2C1561.73 635.357 1562.9 634.936 1564.38 634.936C1565.84 634.936 1566.99 635.357 1567.83 636.2C1568.67 637.021 1569.09 638.057 1569.09 639.311C1569.09 640.541 1568.67 641.566 1567.83 642.387C1566.99 643.207 1565.84 643.617 1564.38 643.617C1562.9 643.617 1561.73 643.207 1560.89 642.387C1560.07 641.566 1559.66 640.541 1559.66 639.311ZM1601.15 677.284V649.018H1609.43V686H1601.63L1601.15 677.284ZM1602.32 669.594L1605.08 669.525C1605.08 672.009 1604.81 674.299 1604.26 676.396C1603.72 678.469 1602.87 680.281 1601.73 681.83C1600.6 683.357 1599.14 684.553 1597.36 685.419C1595.58 686.262 1593.45 686.684 1590.97 686.684C1589.17 686.684 1587.52 686.422 1586.01 685.897C1584.51 685.373 1583.21 684.564 1582.12 683.471C1581.04 682.377 1580.21 680.953 1579.62 679.198C1579.03 677.444 1578.73 675.347 1578.73 672.909V649.018H1586.97V672.978C1586.97 674.322 1587.13 675.45 1587.45 676.361C1587.77 677.25 1588.2 677.968 1588.75 678.515C1589.29 679.062 1589.93 679.449 1590.66 679.677C1591.39 679.905 1592.16 680.019 1592.98 680.019C1595.33 680.019 1597.18 679.563 1598.52 678.651C1599.89 677.717 1600.86 676.464 1601.43 674.892C1602.02 673.319 1602.32 671.553 1602.32 669.594ZM1627.5 656.537V686H1619.27V649.018H1627.03L1627.5 656.537ZM1626.17 666.142L1623.37 666.107C1623.37 663.555 1623.69 661.197 1624.33 659.032C1624.96 656.868 1625.9 654.988 1627.13 653.393C1628.36 651.775 1629.89 650.533 1631.71 649.667C1633.55 648.778 1635.69 648.334 1638.1 648.334C1639.79 648.334 1641.32 648.585 1642.71 649.086C1644.13 649.564 1645.35 650.328 1646.37 651.376C1647.42 652.424 1648.22 653.769 1648.76 655.409C1649.33 657.05 1649.62 659.032 1649.62 661.356V686H1641.38V662.074C1641.38 660.274 1641.11 658.861 1640.56 657.836C1640.04 656.811 1639.27 656.081 1638.27 655.648C1637.29 655.193 1636.12 654.965 1634.75 654.965C1633.2 654.965 1631.88 655.261 1630.79 655.854C1629.72 656.446 1628.84 657.255 1628.15 658.28C1627.47 659.306 1626.97 660.491 1626.65 661.835C1626.33 663.179 1626.17 664.615 1626.17 666.142ZM1649.11 663.954L1645.24 664.809C1645.24 662.576 1645.55 660.468 1646.17 658.485C1646.81 656.48 1647.73 654.726 1648.94 653.222C1650.17 651.695 1651.68 650.499 1653.48 649.633C1655.28 648.767 1657.34 648.334 1659.67 648.334C1661.56 648.334 1663.25 648.596 1664.73 649.12C1666.23 649.621 1667.51 650.419 1668.55 651.513C1669.6 652.606 1670.4 654.031 1670.95 655.785C1671.49 657.517 1671.77 659.613 1671.77 662.074V686H1663.5V662.04C1663.5 660.172 1663.22 658.725 1662.68 657.699C1662.15 656.674 1661.4 655.967 1660.42 655.58C1659.44 655.17 1658.27 654.965 1656.9 654.965C1655.62 654.965 1654.5 655.204 1653.52 655.683C1652.56 656.138 1651.75 656.788 1651.09 657.631C1650.43 658.451 1649.93 659.397 1649.58 660.468C1649.27 661.539 1649.11 662.701 1649.11 663.954ZM1722.49 636.063V686H1714.25V645.839L1702.05 649.975V643.173L1721.5 636.063H1722.49ZM1775.46 668.261V674.823H1739.58L1739.3 669.867L1760.77 636.234H1767.36L1760.22 648.471L1747.88 668.261H1775.46ZM1769.24 636.234V686H1761.01V636.234H1769.24ZM1791.12 656.127V700.219H1782.88V649.018H1790.47L1791.12 656.127ZM1815.21 667.167V667.885C1815.21 670.574 1814.9 673.069 1814.26 675.37C1813.64 677.649 1812.72 679.643 1811.49 681.352C1810.28 683.038 1808.79 684.348 1807.01 685.282C1805.23 686.216 1803.18 686.684 1800.86 686.684C1798.56 686.684 1796.54 686.262 1794.81 685.419C1793.1 684.553 1791.65 683.334 1790.47 681.762C1789.28 680.189 1788.33 678.344 1787.6 676.225C1786.89 674.083 1786.39 671.736 1786.09 669.184V666.415C1786.39 663.703 1786.89 661.243 1787.6 659.032C1788.33 656.822 1789.28 654.919 1790.47 653.324C1791.65 651.729 1793.1 650.499 1794.81 649.633C1796.52 648.767 1798.51 648.334 1800.79 648.334C1803.11 648.334 1805.18 648.79 1806.98 649.701C1808.78 650.59 1810.29 651.866 1811.52 653.529C1812.75 655.17 1813.68 657.152 1814.29 659.477C1814.91 661.778 1815.21 664.341 1815.21 667.167ZM1806.98 667.885V667.167C1806.98 665.458 1806.82 663.874 1806.5 662.416C1806.18 660.935 1805.68 659.636 1804.99 658.52C1804.31 657.403 1803.43 656.537 1802.36 655.922C1801.31 655.284 1800.05 654.965 1798.57 654.965C1797.11 654.965 1795.86 655.215 1794.81 655.717C1793.76 656.195 1792.88 656.868 1792.18 657.733C1791.47 658.599 1790.92 659.613 1790.54 660.775C1790.15 661.915 1789.88 663.157 1789.72 664.501V671.132C1789.99 672.772 1790.46 674.276 1791.12 675.644C1791.78 677.011 1792.71 678.104 1793.92 678.925C1795.15 679.722 1796.72 680.121 1798.64 680.121C1800.12 680.121 1801.38 679.802 1802.43 679.164C1803.48 678.526 1804.33 677.649 1804.99 676.532C1805.68 675.393 1806.18 674.083 1806.5 672.602C1806.82 671.12 1806.98 669.548 1806.98 667.885ZM1829.36 649.018L1836.4 661.288L1843.58 649.018H1852.64L1841.43 667.167L1853.08 686H1844.03L1836.51 673.217L1828.99 686H1819.9L1831.52 667.167L1820.34 649.018H1829.36Z" fill="black"/>
<path d="M252.634 202.26C252.634 201.283 252.471 200.412 252.146 199.647C251.82 198.882 251.283 198.199 250.534 197.597C249.802 196.978 248.809 196.409 247.556 195.888C246.319 195.351 244.772 194.822 242.917 194.301C241.143 193.796 239.54 193.243 238.107 192.641C236.675 192.038 235.446 191.347 234.421 190.565C233.412 189.784 232.639 188.873 232.102 187.831C231.564 186.773 231.296 185.544 231.296 184.145C231.296 182.777 231.589 181.532 232.175 180.409C232.761 179.286 233.583 178.318 234.641 177.504C235.715 176.69 236.976 176.063 238.425 175.624C239.89 175.185 241.493 174.965 243.234 174.965C245.725 174.965 247.873 175.437 249.68 176.381C251.503 177.325 252.91 178.603 253.903 180.214C254.912 181.809 255.417 183.599 255.417 185.585H252.414C252.414 184.039 252.048 182.663 251.315 181.459C250.599 180.238 249.558 179.286 248.19 178.603C246.84 177.903 245.188 177.553 243.234 177.553C241.281 177.553 239.637 177.854 238.303 178.456C236.984 179.042 235.983 179.831 235.3 180.824C234.632 181.801 234.299 182.891 234.299 184.096C234.299 184.942 234.462 185.723 234.787 186.439C235.113 187.139 235.642 187.799 236.374 188.417C237.123 189.019 238.107 189.589 239.328 190.126C240.549 190.647 242.054 191.143 243.845 191.615C245.733 192.136 247.409 192.714 248.874 193.349C250.339 193.983 251.576 194.716 252.585 195.546C253.594 196.36 254.359 197.312 254.88 198.402C255.401 199.493 255.661 200.762 255.661 202.211C255.661 203.66 255.352 204.962 254.733 206.117C254.131 207.257 253.277 208.225 252.17 209.022C251.079 209.82 249.785 210.43 248.288 210.854C246.807 211.277 245.188 211.488 243.43 211.488C241.851 211.488 240.28 211.285 238.718 210.878C237.155 210.471 235.723 209.844 234.421 208.998C233.135 208.135 232.102 207.029 231.32 205.678C230.555 204.327 230.173 202.715 230.173 200.844H233.151C233.151 202.341 233.452 203.603 234.055 204.628C234.657 205.653 235.454 206.483 236.447 207.118C237.456 207.753 238.563 208.217 239.768 208.51C240.988 208.786 242.209 208.925 243.43 208.925C245.301 208.925 246.921 208.648 248.288 208.095C249.672 207.541 250.738 206.768 251.486 205.775C252.251 204.766 252.634 203.594 252.634 202.26ZM272.457 184.584V186.977H259.225V184.584H272.457ZM264.083 177.797H266.988V204.579C266.988 205.8 267.151 206.719 267.477 207.338C267.802 207.956 268.225 208.371 268.746 208.583C269.267 208.795 269.828 208.9 270.431 208.9C270.87 208.9 271.293 208.876 271.7 208.827C272.107 208.762 272.473 208.697 272.799 208.632L272.921 211.098C272.563 211.212 272.099 211.301 271.529 211.366C270.96 211.448 270.39 211.488 269.82 211.488C268.697 211.488 267.704 211.285 266.842 210.878C265.979 210.455 265.304 209.739 264.815 208.729C264.327 207.704 264.083 206.312 264.083 204.555V177.797ZM287.422 208.363L295.649 184.584H298.799L287.617 215.248C287.389 215.85 287.096 216.518 286.738 217.25C286.396 217.982 285.941 218.682 285.371 219.35C284.818 220.033 284.118 220.587 283.271 221.01C282.441 221.449 281.424 221.669 280.22 221.669C279.91 221.669 279.512 221.628 279.023 221.547C278.551 221.482 278.21 221.417 277.998 221.352L277.974 218.886C278.153 218.935 278.413 218.975 278.755 219.008C279.097 219.04 279.333 219.057 279.463 219.057C280.521 219.057 281.408 218.878 282.124 218.52C282.856 218.161 283.467 217.624 283.955 216.908C284.443 216.208 284.875 215.329 285.249 214.271L287.422 208.363ZM279.731 184.584L288.154 207.265L288.936 210.316L286.812 211.513L276.558 184.584H279.731ZM307.611 173.5V211H304.706V173.5H307.611ZM326.8 211.488C325.075 211.488 323.488 211.171 322.039 210.536C320.607 209.901 319.354 209.006 318.279 207.851C317.221 206.695 316.399 205.328 315.813 203.749C315.244 202.154 314.959 200.412 314.959 198.524V197.475C314.959 195.44 315.26 193.601 315.862 191.957C316.465 190.313 317.295 188.905 318.353 187.733C319.41 186.562 320.615 185.666 321.966 185.048C323.333 184.413 324.765 184.096 326.263 184.096C327.939 184.096 329.428 184.397 330.73 184.999C332.033 185.585 333.123 186.423 334.002 187.514C334.897 188.588 335.573 189.866 336.028 191.347C336.484 192.812 336.712 194.431 336.712 196.205V197.987H316.717V195.497H333.807V195.155C333.774 193.674 333.473 192.291 332.903 191.005C332.35 189.703 331.52 188.645 330.413 187.831C329.306 187.017 327.923 186.61 326.263 186.61C325.026 186.61 323.886 186.871 322.845 187.392C321.819 187.912 320.932 188.661 320.184 189.638C319.451 190.598 318.882 191.745 318.475 193.08C318.084 194.398 317.889 195.863 317.889 197.475V198.524C317.889 199.989 318.1 201.356 318.523 202.626C318.963 203.879 319.581 204.986 320.379 205.946C321.193 206.907 322.153 207.655 323.26 208.192C324.367 208.729 325.587 208.998 326.922 208.998C328.484 208.998 329.868 208.713 331.072 208.144C332.277 207.558 333.359 206.638 334.319 205.385L336.15 206.801C335.581 207.647 334.865 208.428 334.002 209.145C333.156 209.861 332.138 210.43 330.95 210.854C329.762 211.277 328.379 211.488 326.8 211.488ZM374.063 184.584H376.773V210.536C376.773 212.831 376.334 214.8 375.455 216.444C374.592 218.088 373.364 219.35 371.769 220.229C370.19 221.107 368.326 221.547 366.178 221.547C365.087 221.547 363.964 221.376 362.809 221.034C361.669 220.709 360.587 220.204 359.562 219.521C358.552 218.853 357.69 218.023 356.974 217.03L358.609 215.248C359.684 216.55 360.831 217.502 362.052 218.104C363.272 218.723 364.591 219.032 366.007 219.032C367.683 219.032 369.099 218.699 370.255 218.031C371.427 217.364 372.314 216.404 372.916 215.15C373.535 213.897 373.844 212.392 373.844 210.634V190.395L374.063 184.584ZM355.509 198.061V197.548C355.509 195.497 355.737 193.65 356.192 192.006C356.664 190.346 357.34 188.93 358.219 187.758C359.098 186.57 360.164 185.666 361.417 185.048C362.687 184.413 364.119 184.096 365.714 184.096C367.244 184.096 368.603 184.348 369.791 184.853C370.979 185.357 372.005 186.081 372.867 187.025C373.73 187.969 374.422 189.092 374.942 190.395C375.479 191.697 375.87 193.145 376.114 194.74V201.259C375.919 202.756 375.561 204.132 375.04 205.385C374.519 206.622 373.827 207.704 372.965 208.632C372.102 209.543 371.061 210.251 369.84 210.756C368.635 211.244 367.244 211.488 365.665 211.488C364.086 211.488 362.67 211.163 361.417 210.512C360.164 209.861 359.098 208.941 358.219 207.753C357.34 206.549 356.664 205.124 356.192 203.48C355.737 201.837 355.509 200.03 355.509 198.061ZM358.438 197.548V198.061C358.438 199.607 358.593 201.039 358.902 202.357C359.212 203.676 359.684 204.823 360.318 205.8C360.953 206.776 361.759 207.541 362.735 208.095C363.712 208.648 364.859 208.925 366.178 208.925C367.854 208.925 369.262 208.607 370.401 207.973C371.541 207.322 372.444 206.467 373.111 205.409C373.779 204.335 374.267 203.163 374.576 201.894V194.301C374.397 193.438 374.12 192.559 373.746 191.664C373.388 190.769 372.883 189.947 372.232 189.198C371.598 188.433 370.784 187.823 369.791 187.367C368.814 186.895 367.626 186.659 366.227 186.659C364.892 186.659 363.728 186.936 362.735 187.489C361.759 188.043 360.953 188.816 360.318 189.809C359.684 190.785 359.212 191.933 358.902 193.251C358.593 194.569 358.438 196.002 358.438 197.548ZM402.334 204.896V184.584H405.264V211H402.456L402.334 204.896ZM402.871 200.014L404.385 199.965C404.385 201.625 404.189 203.155 403.799 204.555C403.408 205.954 402.798 207.175 401.968 208.217C401.138 209.258 400.063 210.064 398.745 210.634C397.427 211.203 395.84 211.488 393.984 211.488C392.699 211.488 391.519 211.309 390.444 210.951C389.386 210.577 388.475 209.991 387.71 209.193C386.945 208.396 386.351 207.362 385.928 206.093C385.521 204.823 385.317 203.285 385.317 201.479V184.584H388.223V201.527C388.223 202.943 388.377 204.123 388.687 205.067C389.012 206.011 389.451 206.768 390.005 207.338C390.575 207.908 391.226 208.314 391.958 208.559C392.69 208.803 393.48 208.925 394.326 208.925C396.475 208.925 398.167 208.51 399.404 207.68C400.658 206.85 401.545 205.759 402.065 204.408C402.603 203.041 402.871 201.576 402.871 200.014ZM417.152 184.584V211H414.247V184.584H417.152ZM413.734 176.942C413.734 176.389 413.905 175.925 414.247 175.551C414.605 175.16 415.093 174.965 415.712 174.965C416.33 174.965 416.819 175.16 417.177 175.551C417.551 175.925 417.738 176.389 417.738 176.942C417.738 177.479 417.551 177.943 417.177 178.334C416.819 178.708 416.33 178.896 415.712 178.896C415.093 178.896 414.605 178.708 414.247 178.334C413.905 177.943 413.734 177.479 413.734 176.942ZM443.299 205.873V173.5H446.229V211H443.494L443.299 205.873ZM424.964 198.061V197.548C424.964 195.497 425.2 193.65 425.672 192.006C426.144 190.346 426.819 188.93 427.698 187.758C428.593 186.57 429.668 185.666 430.921 185.048C432.174 184.413 433.59 184.096 435.169 184.096C436.715 184.096 438.082 184.348 439.271 184.853C440.459 185.357 441.476 186.081 442.322 187.025C443.185 187.969 443.877 189.092 444.397 190.395C444.935 191.697 445.325 193.145 445.569 194.74V201.259C445.374 202.756 445.016 204.132 444.495 205.385C443.974 206.622 443.283 207.704 442.42 208.632C441.557 209.543 440.516 210.251 439.295 210.756C438.09 211.244 436.699 211.488 435.12 211.488C433.558 211.488 432.15 211.163 430.896 210.512C429.643 209.861 428.577 208.941 427.698 207.753C426.819 206.549 426.144 205.124 425.672 203.48C425.2 201.837 424.964 200.03 424.964 198.061ZM427.894 197.548V198.061C427.894 199.607 428.048 201.039 428.357 202.357C428.667 203.676 429.139 204.823 429.773 205.8C430.408 206.776 431.214 207.541 432.19 208.095C433.167 208.648 434.323 208.925 435.657 208.925C437.334 208.925 438.742 208.607 439.881 207.973C441.02 207.322 441.932 206.467 442.615 205.409C443.299 204.335 443.795 203.163 444.104 201.894V194.301C443.909 193.438 443.624 192.559 443.25 191.664C442.876 190.769 442.363 189.947 441.712 189.198C441.077 188.433 440.263 187.823 439.271 187.367C438.294 186.895 437.106 186.659 435.706 186.659C434.355 186.659 433.191 186.936 432.215 187.489C431.238 188.043 430.424 188.816 429.773 189.809C429.139 190.785 428.667 191.933 428.357 193.251C428.048 194.569 427.894 196.002 427.894 197.548ZM465.124 211.488C463.399 211.488 461.812 211.171 460.363 210.536C458.931 209.901 457.678 209.006 456.604 207.851C455.546 206.695 454.724 205.328 454.138 203.749C453.568 202.154 453.283 200.412 453.283 198.524V197.475C453.283 195.44 453.584 193.601 454.187 191.957C454.789 190.313 455.619 188.905 456.677 187.733C457.735 186.562 458.939 185.666 460.29 185.048C461.657 184.413 463.09 184.096 464.587 184.096C466.263 184.096 467.753 184.397 469.055 184.999C470.357 185.585 471.447 186.423 472.326 187.514C473.221 188.588 473.897 189.866 474.353 191.347C474.808 192.812 475.036 194.431 475.036 196.205V197.987H455.041V195.497H472.131V195.155C472.098 193.674 471.797 192.291 471.228 191.005C470.674 189.703 469.844 188.645 468.737 187.831C467.631 187.017 466.247 186.61 464.587 186.61C463.35 186.61 462.211 186.871 461.169 187.392C460.144 187.912 459.257 188.661 458.508 189.638C457.775 190.598 457.206 191.745 456.799 193.08C456.408 194.398 456.213 195.863 456.213 197.475V198.524C456.213 199.989 456.424 201.356 456.848 202.626C457.287 203.879 457.906 204.986 458.703 205.946C459.517 206.907 460.477 207.655 461.584 208.192C462.691 208.729 463.911 208.998 465.246 208.998C466.809 208.998 468.192 208.713 469.396 208.144C470.601 207.558 471.683 206.638 472.644 205.385L474.475 206.801C473.905 207.647 473.189 208.428 472.326 209.145C471.48 209.861 470.463 210.43 469.274 210.854C468.086 211.277 466.703 211.488 465.124 211.488Z" fill="black"/>
<path d="M1420 897V849.4H1432.95C1437.94 849.4 1442.12 850.52 1445.48 852.76C1448.84 854.953 1450.52 858.687 1450.52 863.96C1450.47 869.187 1448.65 873.013 1445.06 875.44C1441.47 877.82 1437.17 879.01 1432.18 879.01H1425.46V897H1420ZM1432.95 854.09H1425.46V874.32H1432.46C1435.91 874.32 1438.81 873.55 1441.14 872.01C1443.52 870.423 1444.73 867.81 1444.78 864.17C1444.78 860.343 1443.71 857.707 1441.56 856.26C1439.46 854.813 1436.59 854.09 1432.95 854.09ZM1463.96 887.34C1463.96 888.787 1464.45 890.163 1465.43 891.47C1466.46 892.777 1468.09 893.43 1470.33 893.43C1472.29 893.43 1474.09 892.94 1475.72 891.96C1477.35 890.98 1478.75 889.813 1479.92 888.46V880.69H1470.96C1468.67 880.69 1466.92 881.367 1465.71 882.72C1464.54 884.027 1463.96 885.567 1463.96 887.34ZM1461.02 865.15C1462.33 864.263 1464.17 863.54 1466.55 862.98C1468.93 862.42 1470.82 862.14 1472.22 862.14C1476.14 862.14 1479.31 863.213 1481.74 865.36C1484.21 867.46 1485.45 870.213 1485.45 873.62V897H1482.09L1480.62 893.57C1479.45 894.643 1477.94 895.623 1476.07 896.51C1474.2 897.397 1472.34 897.84 1470.47 897.84C1466.55 897.84 1463.63 896.86 1461.72 894.9C1459.81 892.893 1458.85 890.373 1458.85 887.34C1458.85 883.98 1459.97 881.437 1462.21 879.71C1464.5 877.937 1467.46 877.05 1471.1 877.05H1479.85C1479.85 874.25 1479.41 871.87 1478.52 869.91C1477.63 867.95 1475.6 866.97 1472.43 866.97C1470.14 866.97 1468.25 867.227 1466.76 867.74C1465.27 868.253 1463.89 868.79 1462.63 869.35C1462.4 868.65 1462.14 867.95 1461.86 867.25C1461.58 866.55 1461.3 865.85 1461.02 865.15ZM1497.55 897V848.35L1503.08 847.58V897H1497.55ZM1518.78 887.34C1518.78 888.787 1519.27 890.163 1520.25 891.47C1521.28 892.777 1522.91 893.43 1525.15 893.43C1527.11 893.43 1528.91 892.94 1530.54 891.96C1532.17 890.98 1533.57 889.813 1534.74 888.46V880.69H1525.78C1523.49 880.69 1521.74 881.367 1520.53 882.72C1519.36 884.027 1518.78 885.567 1518.78 887.34ZM1515.84 865.15C1517.15 864.263 1518.99 863.54 1521.37 862.98C1523.75 862.42 1525.64 862.14 1527.04 862.14C1530.96 862.14 1534.13 863.213 1536.56 865.36C1539.03 867.46 1540.27 870.213 1540.27 873.62V897H1536.91L1535.44 893.57C1534.27 894.643 1532.76 895.623 1530.89 896.51C1529.02 897.397 1527.16 897.84 1525.29 897.84C1521.37 897.84 1518.45 896.86 1516.54 894.9C1514.63 892.893 1513.67 890.373 1513.67 887.34C1513.67 883.98 1514.79 881.437 1517.03 879.71C1519.32 877.937 1522.28 877.05 1525.92 877.05H1534.67C1534.67 874.25 1534.23 871.87 1533.34 869.91C1532.45 867.95 1530.42 866.97 1527.25 866.97C1524.96 866.97 1523.07 867.227 1521.58 867.74C1520.09 868.253 1518.71 868.79 1517.45 869.35C1517.22 868.65 1516.96 867.95 1516.68 867.25C1516.4 866.55 1516.12 865.85 1515.84 865.15ZM1557.34 867.95C1558.79 866.317 1560.66 864.94 1562.94 863.82C1565.23 862.653 1567.38 862.07 1569.38 862.07C1573.26 862.07 1576.13 863.213 1577.99 865.5C1579.86 867.74 1580.79 870.563 1580.79 873.97V896.93H1575.26V874.74C1575.26 872.453 1574.7 870.563 1573.58 869.07C1572.46 867.577 1570.74 866.807 1568.4 866.76C1566.96 866.76 1565.18 867.25 1563.08 868.23C1561.03 869.21 1559.26 870.563 1557.76 872.29V897H1552.23V863.05H1555.59L1557.34 867.95ZM1620.46 863.05V911.56L1614.86 912.33V894.41C1613.5 895.437 1611.96 896.277 1610.24 896.93C1608.56 897.583 1606.97 897.91 1605.48 897.91C1600.53 897.91 1596.82 896.23 1594.35 892.87C1591.92 889.463 1590.71 885.193 1590.71 880.06C1590.71 874.833 1591.94 870.54 1594.42 867.18C1596.94 863.773 1600.67 862.07 1605.62 862.07C1607.25 862.07 1608.98 862.467 1610.8 863.26C1612.66 864.007 1614.32 864.963 1615.77 866.13L1617.17 863.05H1620.46ZM1606.46 866.76C1602.77 866.76 1600.16 868.067 1598.62 870.68C1597.12 873.247 1596.38 876.35 1596.38 879.99C1596.38 883.77 1597.12 886.92 1598.62 889.44C1600.11 891.913 1602.72 893.15 1606.46 893.15C1607.76 893.15 1609.16 892.847 1610.66 892.24C1612.15 891.587 1613.55 890.677 1614.86 889.51V870.47C1613.55 869.303 1612.15 868.393 1610.66 867.74C1609.16 867.087 1607.76 866.76 1606.46 866.76ZM1654.88 893.29C1653.38 894.643 1651.66 895.763 1649.7 896.65C1647.74 897.537 1645.85 897.98 1644.03 897.98C1640.06 897.98 1637.14 896.86 1635.28 894.62C1633.46 892.333 1632.55 889.463 1632.55 886.01V863.05H1638.08V885.38C1638.08 887.667 1638.64 889.557 1639.76 891.05C1640.88 892.543 1642.58 893.29 1644.87 893.29C1646.17 893.29 1647.71 892.917 1649.49 892.17C1651.26 891.423 1652.89 890.373 1654.39 889.02V863.05H1659.92V897H1656.49L1654.88 893.29ZM1675.1 856.33C1674.03 856.33 1673.14 855.98 1672.44 855.28C1671.74 854.533 1671.39 853.623 1671.39 852.55C1671.35 851.523 1671.67 850.66 1672.37 849.96C1673.12 849.213 1674.03 848.84 1675.1 848.84C1676.13 848.84 1677.02 849.213 1677.76 849.96C1678.56 850.66 1678.95 851.523 1678.95 852.55C1678.95 853.623 1678.56 854.533 1677.76 855.28C1677.02 855.98 1676.13 856.33 1675.1 856.33ZM1672.37 897V863.05H1677.97V897H1672.37ZM1695.42 867.95C1696.87 866.317 1698.74 864.94 1701.02 863.82C1703.31 862.653 1705.46 862.07 1707.46 862.07C1711.34 862.07 1714.21 863.213 1716.07 865.5C1717.94 867.74 1718.87 870.563 1718.87 873.97V896.93H1713.34V874.74C1713.34 872.453 1712.78 870.563 1711.66 869.07C1710.54 867.577 1708.82 866.807 1706.48 866.76C1705.04 866.76 1703.26 867.25 1701.16 868.23C1699.11 869.21 1697.34 870.563 1695.84 872.29V897H1690.31V863.05H1693.67L1695.42 867.95Z" fill="black"/>
<path d="M1436.66 1052.4C1441.28 1052.4 1445.04 1053.43 1447.93 1055.48C1450.82 1057.49 1452.27 1060.89 1452.27 1065.7C1452.27 1067.47 1451.85 1069.08 1451.01 1070.53C1450.22 1071.93 1449.17 1073.14 1447.86 1074.17C1450.01 1075.29 1451.76 1076.81 1453.11 1078.72C1454.51 1080.63 1455.21 1083.06 1455.21 1086C1455.21 1090.39 1453.67 1093.82 1450.59 1096.29C1447.56 1098.76 1443.5 1100 1438.41 1100H1418.88V1052.4H1436.66ZM1435.33 1059.96H1427.91V1071.79H1434.63C1437.15 1071.79 1439.11 1071.32 1440.51 1070.39C1441.96 1069.41 1442.68 1067.89 1442.68 1065.84C1442.68 1063.6 1442.03 1062.06 1440.72 1061.22C1439.41 1060.38 1437.62 1059.96 1435.33 1059.96ZM1438.34 1079.14H1427.91V1092.51H1437.71C1440.14 1092.51 1442.07 1091.95 1443.52 1090.83C1445.01 1089.71 1445.76 1088.12 1445.76 1086.07C1445.76 1083.83 1445.08 1082.13 1443.73 1080.96C1442.38 1079.75 1440.58 1079.14 1438.34 1079.14ZM1480.02 1100.84C1474.65 1100.79 1470.45 1099.16 1467.42 1095.94C1464.43 1092.72 1462.94 1088.38 1462.94 1082.92C1462.94 1077.51 1464.5 1073.19 1467.63 1069.97C1470.8 1066.75 1475.12 1065.14 1480.58 1065.14C1486.22 1065.14 1490.59 1066.82 1493.67 1070.18C1496.79 1073.49 1498.36 1077.86 1498.36 1083.27C1498.36 1088.68 1496.68 1092.95 1493.32 1096.08C1489.96 1099.21 1485.52 1100.79 1480.02 1100.84ZM1488.98 1083.27C1488.98 1080.05 1488.25 1077.53 1486.81 1075.71C1485.41 1073.84 1483.4 1072.91 1480.79 1072.91C1478.13 1072.91 1476.05 1073.73 1474.56 1075.36C1473.06 1076.99 1472.32 1079.49 1472.32 1082.85C1472.32 1086.21 1472.95 1088.75 1474.21 1090.48C1475.51 1092.21 1477.5 1093.07 1480.16 1093.07C1482.77 1093.07 1484.89 1092.3 1486.53 1090.76C1488.16 1089.17 1488.98 1086.68 1488.98 1083.27ZM1516.54 1050.58V1100H1507.51V1051.35L1516.54 1050.58ZM1543.47 1072.49C1540.3 1072.49 1538.08 1073.61 1536.82 1075.85C1535.61 1078.09 1535 1080.4 1535 1082.78C1535 1085.44 1535.56 1087.82 1536.68 1089.92C1537.8 1092.02 1540.06 1093.07 1543.47 1093.07C1544.54 1093.07 1545.66 1092.84 1546.83 1092.37C1548.04 1091.86 1549.16 1091.27 1550.19 1090.62V1074.94C1549.16 1074.24 1548.04 1073.66 1546.83 1073.19C1545.66 1072.72 1544.54 1072.49 1543.47 1072.49ZM1559.36 1050.58V1100H1554.6L1552.08 1096.71C1550.54 1098.02 1548.72 1099.04 1546.62 1099.79C1544.57 1100.49 1542.7 1100.84 1541.02 1100.84C1536.07 1100.84 1532.27 1099.11 1529.61 1095.66C1526.95 1092.21 1525.62 1087.91 1525.62 1082.78C1525.62 1077.65 1527.02 1073.35 1529.82 1069.9C1532.67 1066.45 1536.54 1064.72 1541.44 1064.72C1542.7 1064.72 1544.12 1064.95 1545.71 1065.42C1547.3 1065.84 1548.79 1066.45 1550.19 1067.24V1051.35L1559.36 1050.58ZM1588.07 1093.7H1595.7V1070.81L1592.06 1072.91L1587.79 1066.75L1598.71 1060.38H1604.8V1093.7H1610.19L1610.96 1100H1588.77L1588.07 1093.7ZM1632.26 1059.47C1637.63 1059.47 1641.36 1060.8 1643.46 1063.46C1645.56 1066.07 1646.61 1068.97 1646.61 1072.14C1646.61 1074.94 1645.82 1077.51 1644.23 1079.84C1642.69 1082.17 1640.22 1084.74 1636.81 1087.54L1630.16 1093.07H1647.45L1648.64 1100H1618.19V1093.91L1631.91 1081.87C1634.52 1079.58 1636.25 1077.76 1637.09 1076.41C1637.98 1075.01 1638.44 1073.59 1638.49 1072.14C1638.49 1070.65 1637.93 1069.39 1636.81 1068.36C1635.69 1067.33 1634.13 1066.82 1632.12 1066.82C1630.39 1066.82 1628.41 1067.45 1626.17 1068.71C1623.93 1069.97 1622.74 1070.62 1622.6 1070.67L1618.68 1064.51C1619.99 1063.48 1621.76 1062.39 1624 1061.22C1626.24 1060.05 1628.99 1059.47 1632.26 1059.47ZM1672.85 1093.07C1675.97 1093.07 1678.17 1091.95 1679.43 1089.71C1680.69 1087.42 1681.32 1085.11 1681.32 1082.78C1681.32 1080.12 1680.76 1077.74 1679.64 1075.64C1678.52 1073.54 1676.25 1072.49 1672.85 1072.49C1671.87 1072.49 1670.84 1072.68 1669.77 1073.05C1668.74 1073.38 1667.76 1073.84 1666.83 1074.45V1091.11C1667.76 1091.67 1668.74 1092.14 1669.77 1092.51C1670.84 1092.88 1671.87 1093.07 1672.85 1093.07ZM1657.8 1066.05H1662.42L1664.38 1068.57C1665.92 1067.4 1667.71 1066.47 1669.77 1065.77C1671.82 1065.07 1673.64 1064.72 1675.23 1064.72C1680.22 1064.72 1684.05 1066.45 1686.71 1069.9C1689.37 1073.35 1690.7 1077.65 1690.7 1082.78C1690.7 1087.91 1689.32 1092.21 1686.57 1095.66C1683.86 1099.11 1680.08 1100.84 1675.23 1100.84C1674.01 1100.84 1672.64 1100.63 1671.1 1100.21C1669.6 1099.79 1668.18 1099.21 1666.83 1098.46V1114.63L1657.8 1115.33V1066.05ZM1695.46 1100L1708.27 1082.78L1696.58 1067.38L1705.89 1066.05L1714.08 1076.97L1722.62 1066.05H1732.56L1719.47 1084.11L1731.44 1100H1721.43L1713.59 1089.85L1705.54 1100H1695.46Z" fill="black"/>
<path d="M1447.02 1177H1420.35V1129.4H1424.69V1173.5H1446.67L1447.02 1177ZM1458 1135.63C1457.02 1135.63 1456.23 1135.33 1455.62 1134.72C1455.01 1134.07 1454.71 1133.27 1454.71 1132.34C1454.71 1131.41 1455.01 1130.64 1455.62 1130.03C1456.23 1129.38 1457.02 1129.05 1458 1129.05C1458.89 1129.05 1459.66 1129.38 1460.31 1130.03C1461.01 1130.64 1461.36 1131.41 1461.36 1132.34C1461.36 1133.27 1461.01 1134.07 1460.31 1134.72C1459.66 1135.33 1458.89 1135.63 1458 1135.63ZM1455.83 1177V1143.05H1460.24V1177H1455.83ZM1495.2 1149.98C1493.75 1148.63 1492.23 1147.6 1490.65 1146.9C1489.06 1146.2 1487.57 1145.85 1486.17 1145.85C1482.34 1145.85 1479.61 1147.2 1477.98 1149.91C1476.39 1152.57 1475.6 1155.95 1475.6 1160.06C1475.6 1164.17 1476.39 1167.55 1477.98 1170.21C1479.61 1172.87 1482.34 1174.2 1486.17 1174.2C1487.57 1174.2 1489.06 1173.87 1490.65 1173.22C1492.23 1172.52 1493.75 1171.49 1495.2 1170.14V1149.98ZM1499.61 1180.71C1499.61 1184.07 1498.42 1186.87 1496.04 1189.11C1493.7 1191.35 1490.32 1192.47 1485.89 1192.47C1484.53 1192.47 1482.71 1192.21 1480.43 1191.7C1478.14 1191.19 1476.34 1190.49 1475.04 1189.6L1476.37 1186.38C1477.53 1186.94 1478.79 1187.48 1480.15 1187.99C1481.5 1188.5 1483.37 1188.78 1485.75 1188.83C1488.59 1188.83 1490.88 1188.15 1492.61 1186.8C1494.33 1185.49 1495.2 1183.44 1495.2 1180.64V1174.2C1493.84 1175.32 1492.3 1176.23 1490.58 1176.93C1488.9 1177.58 1487.29 1177.91 1485.75 1177.91C1480.8 1177.91 1477.14 1176.25 1474.76 1172.94C1472.38 1169.58 1471.19 1165.31 1471.19 1160.13C1471.19 1154.9 1472.38 1150.61 1474.76 1147.25C1477.14 1143.84 1480.8 1142.14 1485.75 1142.14C1487.38 1142.14 1489.06 1142.54 1490.79 1143.33C1492.56 1144.08 1494.15 1145.03 1495.55 1146.2L1496.74 1143.05H1499.61V1180.71ZM1512.77 1177V1128.28L1517.11 1127.58V1148.23C1518.55 1146.6 1520.37 1145.17 1522.57 1143.96C1524.81 1142.75 1526.98 1142.14 1529.08 1142.14C1532.72 1142.14 1535.45 1143.21 1537.27 1145.36C1539.13 1147.46 1540.07 1150.14 1540.07 1153.41V1176.93H1535.73V1154.25C1535.73 1151.92 1535.14 1149.96 1533.98 1148.37C1532.86 1146.74 1531.06 1145.9 1528.59 1145.85C1527.09 1145.85 1525.2 1146.39 1522.92 1147.46C1520.63 1148.53 1518.69 1150.07 1517.11 1152.08V1177H1512.77ZM1565.46 1147.04H1557.83V1168.39C1557.83 1170.07 1558.18 1171.45 1558.88 1172.52C1559.63 1173.59 1560.86 1174.13 1562.59 1174.13C1563.1 1174.13 1563.64 1174.06 1564.2 1173.92C1564.81 1173.73 1565.23 1173.59 1565.46 1173.5L1566.3 1177.07C1565.83 1177.16 1565.18 1177.33 1564.34 1177.56C1563.55 1177.79 1562.66 1177.91 1561.68 1177.91C1559.21 1177.91 1557.2 1177.14 1555.66 1175.6C1554.17 1174.06 1553.42 1171.82 1553.42 1168.88V1147.04H1548.45L1548.38 1143.75H1553.42V1134.93L1557.83 1133.39V1143.75H1563.99L1565.46 1147.04ZM1610.75 1177H1592.83L1592.2 1173.5H1599.69V1142.77L1594.44 1146.34L1592.41 1143.33L1601.16 1137.38H1604.1V1173.5H1610.26L1610.75 1177ZM1651.2 1171.82H1644.48V1181.83H1640.14V1171.82H1618.65L1618.02 1168.25L1641.61 1137.03H1644.48V1168.25H1651.76L1651.2 1171.82ZM1622.71 1168.25H1640.14V1145.08L1622.71 1168.25ZM1665.54 1170.14C1666.99 1171.49 1668.51 1172.52 1670.09 1173.22C1671.73 1173.87 1673.24 1174.2 1674.64 1174.2C1678.47 1174.2 1681.2 1172.89 1682.83 1170.28C1684.47 1167.62 1685.28 1164.24 1685.28 1160.13C1685.28 1155.98 1684.47 1152.57 1682.83 1149.91C1681.2 1147.2 1678.47 1145.85 1674.64 1145.85C1673.24 1145.85 1671.73 1146.2 1670.09 1146.9C1668.51 1147.6 1666.99 1148.63 1665.54 1149.98V1170.14ZM1661.2 1192.33V1143.05H1664.07L1665.12 1146.2C1666.57 1145.08 1668.16 1144.12 1669.88 1143.33C1671.66 1142.54 1673.36 1142.14 1674.99 1142.14C1679.99 1142.14 1683.65 1143.84 1685.98 1147.25C1688.36 1150.61 1689.55 1154.88 1689.55 1160.06C1689.55 1165.24 1688.36 1169.51 1685.98 1172.87C1683.65 1176.23 1679.99 1177.91 1674.99 1177.91C1673.41 1177.91 1671.77 1177.58 1670.09 1176.93C1668.46 1176.23 1666.94 1175.32 1665.54 1174.2V1191.56L1661.2 1192.33ZM1695.85 1177L1708.66 1159.85L1696.83 1143.75L1701.38 1143.05L1711.88 1157.47L1722.52 1143.05H1727.28L1714.26 1160.69L1726.3 1177H1721.54L1711.04 1163.07L1700.75 1177H1695.85Z" fill="black"/>
</svg>
